:SAMPLES-PER-SECOND 30
:FRAME-RANGE 1-2775
:FULLY-SPECIFIED
:DEGREES
2342
root  -7.00431 38.66 -46.06 1.1264 -47.1733 3.43372
RightUpLeg  13.896 -2.79939 3.47974
RightLeg  5.31543 3.5325 -0.212224
RightFoot  -19.2824 -0.257198 -1.8265
RightToes  -5.28216e-011 1.2921e-014 -6.02303e-014
Spine  6.13598 2.17618 4.09451
Spine1  2.72685 4.03268 -7.71416
HEad  10.9792 13.6143 -3.8843
LeftShoulder1  1.01119 0.708521 -30.0965
LeftArm  16.2342 14.6118 -24.4321
LeftForeArm  -1.3041 -17.3365 -9.68084
LeftHand  0.41074 -3.54589 -5.08983
RightShoulder  2.41867 1.234 44.7451
RightArm  22.9399 -8.68393 8.54738
RightForeArm  7.7407 4.78894 17.3196
RightHand  0.0556033 4.2151 0.394551
LeftUpLeg  -25.3241 2.71779 -2.47814
LeftLeg  -0.573258 23.6464 -5.31573
LeftFoot  0.31519 1.12426 -11.0084
LeftToes  -2.158e-010 -1.26819e-010 -1.05346e-011
2343
root  -8.18864 38.35 -44.9125 1.25404 -48.1904 2.79474
RightUpLeg  16.0051 -3.45289 2.87938
RightLeg  7.36854 5.98149 0.516907
RightFoot  -19.8877 -0.17362 -0.5228
RightToes  -5.28216e-011 1.2921e-014 -6.02303e-014
Spine  5.55226 2.36012 3.3749
Spine1  2.91288 4.17378 -7.45999
HEad  10.8484 14.2585 -3.3502
LeftShoulder1  0.956142 0.860621 -30.0931
LeftArm  19.2724 14.5546 -24.1458
LeftForeArm  -3.14659 -19.3659 -7.9358
LeftHand  0.369001 -3.61902 -4.50551
RightShoulder  2.29625 0.812191 46.719
RightArm  25.0499 -9.6189 9.84963
RightForeArm  6.339 6.36188 16.8545
RightHand  0.284363 4.71205 2.96921
LeftUpLeg  -25.5477 2.67322 -3.91095
LeftLeg  3.53345 21.6726 -4.1884
LeftFoot  2.44374 0.549305 -4.66622
LeftToes  -2.158e-010 -1.26819e-010 -1.05346e-011
2344
root  -9.39724 38.1556 -43.7466 -0.310196 -49.5275 3.8476
RightUpLeg  17.5988 -4.43335 0.337115
RightLeg  11.3988 10.2512 1.95255
RightFoot  -19.6442 -0.018556 1.5766
RightToes  -5.28216e-011 1.2921e-014 -6.02303e-014
Spine  5.80085 2.60597 0.762393
Spine1  2.52737 4.17054 -6.67433
HEad  10.7069 15.2348 -2.76103
LeftShoulder1  0.882926 1.09175 -30.5252
LeftArm  20.7766 14.8089 -23.7153
LeftForeArm  -4.44185 -20.8056 -6.72323
LeftHand  0.343755 -3.82056 -4.0742
RightShoulder  2.16905 0.353439 49.4398
RightArm  25.4991 -9.83622 10.3718
RightForeArm  6.89721 7.43447 16.3352
RightHand  0.476773 5.24829 4.88043
LeftUpLeg  -25.6181 1.98205 -5.9728
LeftLeg  8.09218 19.7265 -1.02311
LeftFoot  9.05356 -1.28415 6.82228
LeftToes  -2.158e-010 -1.26819e-010 -1.05346e-011
2345
root  -10.6425 37.9663 -42.5853 -2.97566 -49.0693 6.50989
RightUpLeg  16.4983 -5.02451 -3.15692
RightLeg  20.5908 13.5369 5.35813
RightFoot  -17.8317 0.170353 5.13396
RightToes  -5.28216e-011 1.2921e-014 -6.02303e-014
Spine  6.46655 2.27091 -3.91442
Spine1  1.12824 2.95957 -4.31389
HEad  10.7713 16.3196 -2.11017
LeftShoulder1  0.87453 1.16546 -31.3247
LeftArm  21.1116 13.821 -23.412
LeftForeArm  -6.25484 -20.2512 -7.35335
LeftHand  0.304741 -3.5067 -3.7324
RightShoulder  1.9706 -0.188858 52.2713
RightArm  23.2715 -9.17041 11.2769
RightForeArm  9.61432 6.78242 16.3374
RightHand  0.449154 5.29555 4.55693
LeftUpLeg  -26.9578 7.79345 -11.8208
LeftLeg  17.0328 11.7412 3.84923
LeftFoot  4.60995 -0.937293 6.48225
LeftToes  -2.158e-010 -1.26819e-010 -1.05346e-011
2346
root  -11.6406 37.9393 -41.5137 -4.46671 -49.2997 7.81842
RightUpLeg  11.9201 -3.72732 -5.3572
RightLeg  33.3762 14.8689 10.1002
RightFoot  -10.6587 -0.153756 13.5421
RightToes  -5.28216e-011 1.2921e-014 -6.02303e-014
Spine  6.97711 2.04393 -5.56657
Spine1  0.747121 2.53456 -4.54725
HEad  10.756 16.9403 -1.90092
LeftShoulder1  0.998305 0.867676 -31.8017
LeftArm  15.5685 10.7669 -24.1523
LeftForeArm  -1.79076 -15.2483 -11.6453
LeftHand  0.28709 -3.29696 -3.60262
RightShoulder  2.07686 -0.107158 53.6971
RightArm  21.8256 -9.14425 13.0305
RightForeArm  10.4787 7.07324 15.9768
RightHand  0.355841 5.09074 3.62829
LeftUpLeg  -26.0595 9.00541 -13.0245
LeftLeg  21.0781 10.6125 4.8134
LeftFoot  0.981428 -0.725015 6.65293
LeftToes  -2.158e-010 -1.26819e-010 -1.05346e-011
2347
root  -12.4338 37.8649 -40.5713 -6.00275 -51.0972 9.59314
RightUpLeg  4.07827 1.18786 -6.80136
RightLeg  47.393 12.7614 14.159
RightFoot  -0.29108 -2.0762 21.2162
RightToes  -5.28216e-011 1.2921e-014 -6.02303e-014
Spine  7.30994 2.37627 -6.76307
Spine1  0.937456 2.7729 -5.95408
HEad  10.8143 17.8682 -2.42965
LeftShoulder1  1.13719 0.533243 -32.219
LeftArm  8.27966 7.12284 -25.5113
LeftForeArm  4.04982 -9.01045 -15.305
LeftHand  0.346647 -3.01584 -4.56849
RightShoulder  2.7885 1.01661 54.0539
RightArm  28.4243 -9.50728 14.7261
RightForeArm  4.68753 11.484 14.0932
RightHand  0.353141 4.99525 3.63756
LeftUpLeg  -25.5274 10.6513 -14.0084
LeftLeg  24.1858 10.799 5.60642
LeftFoot  -2.44769 -0.513843 6.78925
LeftToes  -2.158e-010 -1.26819e-010 -1.05346e-011
2348
root  -13.2218 37.8518 -39.6463 -7.71956 -52.0548 11.2638
RightUpLeg  -3.17665 4.7315 -8.47259
RightLeg  57.464 9.67673 15.5125
RightFoot  11.0365 -4.8699 24.6625
RightToes  -5.28216e-011 1.2921e-014 -6.02303e-014
Spine  7.67004 2.24375 -8.56775
Spine1  1.21062 2.31579 -6.30475
HEad  10.7698 19.0993 -3.25291
LeftShoulder1  1.28879 0.166987 -32.5652
LeftArm  4.50441 3.88067 -27.4694
LeftForeArm  7.80389 -4.56729 -16.8497
LeftHand  0.436106 -2.82029 -5.95827
RightShoulder  3.55332 2.30209 53.5925
RightArm  40.0467 -9.27537 16.0278
RightForeArm  -3.87057 17.7925 9.68923
RightHand  0.387712 4.9778 4.03085
LeftUpLeg  -23.935 12.139 -14.7947
LeftLeg  25.9313 10.5739 5.66693
LeftFoot  -5.52468 -0.267417 5.91446
LeftToes  -2.158e-010 -1.26819e-010 -1.05346e-011
2349
root  -14.1033 38.0458 -38.5952 -8.1347 -51.9634 10.7496
RightUpLeg  -8.41583 6.25876 -9.08119
RightLeg  63.6481 6.03409 12.5456
RightFoot  7.38837 -3.70797 22.5283
RightToes  -5.28216e-011 1.2921e-014 -6.02303e-014
Spine  8.32357 1.6899 -9.089
Spine1  0.999859 1.38867 -5.62375
HEad  10.7568 19.9445 -4.0032
LeftShoulder1  1.46793 -0.254415 -33.0054
LeftArm  6.09163 0.671705 -29.9026
LeftForeArm  9.45078 -2.38842 -17.6195
LeftHand  0.51366 -2.95275 -6.93052
RightShoulder  3.93267 3.04748 52.5862
RightArm  45.9155 -8.59575 16.6172
RightForeArm  -7.03554 22.9635 5.51479
RightHand  0.365696 4.97584 3.78584
LeftUpLeg  -20.4942 11.4333 -13.88
LeftLeg  26.0709 11.4188 5.51625
LeftFoot  -8.00319 -0.0976077 5.00117
LeftToes  -2.158e-010 -1.26819e-010 -1.05346e-011
2350
root  -15.0194 38.3534 -37.4909 -7.38177 -51.7263 8.92041
RightUpLeg  -13.1894 7.00173 -8.70671
RightLeg  65.8293 3.01712 6.74332
RightFoot  4.97758 -2.46976 17.3441
RightToes  -5.28216e-011 1.2921e-014 -6.02303e-014
Spine  8.57531 1.16334 -8.44878
Spine1  0.720328 0.716329 -4.94154
HEad  11.0184 20.0931 -4.3725
LeftShoulder1  1.61047 -0.603828 -33.1571
LeftArm  12.5362 -2.59706 -33.1104
LeftForeArm  8.47259 -2.41724 -18.1646
LeftHand  0.5291 -3.17183 -6.9445
RightShoulder  4.12982 3.50806 51.6154
RightArm  41.3959 -7.34636 16.4187
RightForeArm  -1.52119 26.151 5.69646
RightHand  0.29158 4.96849 2.9603
LeftUpLeg  -16.3746 9.90258 -11.9595
LeftLeg  24.8878 12.9147 4.72588
LeftFoot  -9.83531 0.0022166 4.33279
LeftToes  -2.158e-010 -1.26819e-010 -1.05346e-011
2351
root  -15.9468 38.6824 -36.3804 -5.94327 -51.268 6.68176
RightUpLeg  -17.628 7.10025 -7.91483
RightLeg  64.708 0.339676 0.197524
RightFoot  4.20052 -1.59014 11.8255
RightToes  -5.28216e-011 1.2921e-014 -6.02303e-014
Spine  8.36503 0.576967 -7.66834
Spine1  0.342969 0.0738028 -3.93828
HEad  11.5546 19.94 -4.17392
LeftShoulder1  1.68422 -0.827346 -32.8415
LeftArm  17.3431 -4.66774 -36.6391
LeftForeArm  8.66681 -4.08307 -17.9039
LeftHand  0.517074 -3.47834 -6.52372
RightShoulder  4.38561 4.09839 50.5678
RightArm  37.2457 -6.04991 16.1535
RightForeArm  1.21062 28.1405 6.02057
RightHand  0.236259 4.99981 2.3325
LeftUpLeg  -12.1909 7.80358 -9.89213
LeftLeg  22.6367 14.6839 3.44879
LeftFoot  -11.1162 0.0589637 4.01662
LeftToes  -2.158e-010 -1.26819e-010 -1.05346e-011
2352
root  -16.8736 38.9761 -35.2722 -4.27762 -50.5915 4.32892
RightUpLeg  -21.0491 7.0065 -6.94818
RightLeg  60.1045 -2.10966 -4.45371
RightFoot  2.36222 -1.14728 9.66125
RightToes  -5.28216e-011 1.2921e-014 -6.02303e-014
Spine  8.33386 0.0115671 -6.91579
Spine1  -0.484674 -0.549066 -2.51947
HEad  12.06 19.661 -3.70074
LeftShoulder1  1.72593 -0.964719 -32.5822
LeftArm  21.334 -5.3919 -39.6115
LeftForeArm  7.92664 -7.84142 -16.4868
LeftHand  0.489558 -3.8098 -5.91766
RightShoulder  4.61789 4.65114 49.6398
RightArm  33.8742 -4.74589 15.6444
RightForeArm  1.87036 29.4263 6.29669
RightHand  0.19865 4.9078 1.93584
LeftUpLeg  -8.10883 6.59084 -8.146
LeftLeg  19.9372 15.0686 2.0867
LeftFoot  -12.1062 0.0977626 3.74101
LeftToes  -2.158e-010 -1.26819e-010 -1.05346e-011
